# Blender v2.78 (sub 0) OBJ File: ''
# www.blender.org
mtllib cylinder.mtl
o Cylinder
v 0.000000 -4.000754 -4.000754
v 0.000000 4.000754 -4.000754
v 0.780508 -4.000754 -3.923880
v 0.780508 4.000754 -3.923880
v 1.531022 -4.000754 -3.696214
v 1.531022 4.000754 -3.696214
v 2.222700 -4.000754 -3.326505
v 2.222700 4.000754 -3.326505
v 2.828960 -4.000754 -2.828960
v 2.828960 4.000754 -2.828960
v 3.326505 -4.000754 -2.222700
v 3.326505 4.000754 -2.222700
v 3.696214 -4.000754 -1.531022
v 3.696214 4.000754 -1.531022
v 3.923880 -4.000754 -0.780509
v 3.923880 4.000754 -0.780509
v 4.000754 -4.000754 -0.000000
v 4.000754 4.000754 -0.000000
v 3.923881 -4.000754 0.780508
v 3.923881 4.000754 0.780508
v 3.696215 -4.000754 1.531022
v 3.696215 4.000754 1.531022
v 3.326505 -4.000754 2.222700
v 3.326505 4.000754 2.222700
v 2.828960 -4.000754 2.828960
v 2.828960 4.000754 2.828960
v 2.222700 -4.000754 3.326505
v 2.222700 4.000754 3.326505
v 1.531022 -4.000754 3.696215
v 1.531022 4.000754 3.696215
v 0.780507 -4.000754 3.923881
v 0.780507 4.000754 3.923881
v -0.000001 -4.000754 4.000754
v -0.000001 4.000754 4.000754
v -0.780510 -4.000754 3.923880
v -0.780510 4.000754 3.923880
v -1.531024 -4.000754 3.696214
v -1.531024 4.000754 3.696214
v -2.222702 -4.000754 3.326504
v -2.222702 4.000754 3.326504
v -2.828962 -4.000754 2.828959
v -2.828962 4.000754 2.828959
v -3.326507 -4.000754 2.222697
v -3.326507 4.000754 2.222697
v -3.696216 -4.000754 1.531019
v -3.696216 4.000754 1.531019
v -3.923881 -4.000754 0.780505
v -3.923881 4.000754 0.780505
v -4.000754 -4.000754 -0.000004
v -4.000754 4.000754 -0.000004
v -3.923880 -4.000754 -0.780513
v -3.923880 4.000754 -0.780513
v -3.696213 -4.000754 -1.531026
v -3.696213 4.000754 -1.531026
v -3.326503 -4.000754 -2.222704
v -3.326503 4.000754 -2.222704
v -2.828957 -4.000754 -2.828964
v -2.828957 4.000754 -2.828964
v -2.222695 -4.000754 -3.326508
v -2.222695 4.000754 -3.326508
v -1.531017 -4.000754 -3.696217
v -1.531017 4.000754 -3.696217
v -0.780502 -4.000754 -3.923882
v -0.780502 4.000754 -3.923882
vn 0.0000 -0.6857 -0.7279
vn 0.0000 0.6857 -0.7279
vn 0.1420 0.6857 -0.7139
vn 0.1420 -0.6857 -0.7139
vn 0.2785 0.6857 -0.6725
vn 0.2785 -0.6857 -0.6725
vn 0.4044 0.6857 -0.6052
vn 0.4044 -0.6857 -0.6052
vn 0.5147 0.6857 -0.5147
vn 0.5147 -0.6857 -0.5147
vn 0.6052 0.6857 -0.4044
vn 0.6052 -0.6857 -0.4044
vn 0.6725 0.6857 -0.2785
vn 0.6725 -0.6857 -0.2785
vn 0.7139 0.6857 -0.1420
vn 0.7139 -0.6857 -0.1420
vn 0.7279 0.6857 0.0000
vn 0.7279 -0.6857 0.0000
vn 0.7139 0.6857 0.1420
vn 0.7139 -0.6857 0.1420
vn 0.6725 0.6857 0.2785
vn 0.6725 -0.6857 0.2785
vn 0.6052 0.6857 0.4044
vn 0.6052 -0.6857 0.4044
vn 0.5147 0.6857 0.5147
vn 0.5147 -0.6857 0.5147
vn 0.4044 0.6857 0.6052
vn 0.4044 -0.6857 0.6052
vn 0.2785 0.6857 0.6725
vn 0.2785 -0.6857 0.6725
vn 0.1420 0.6857 0.7139
vn 0.1420 -0.6857 0.7139
vn 0.0000 0.6857 0.7279
vn 0.0000 -0.6857 0.7279
vn -0.1420 0.6857 0.7139
vn -0.1420 -0.6857 0.7139
vn -0.2785 0.6857 0.6725
vn -0.2785 -0.6857 0.6725
vn -0.4044 0.6857 0.6052
vn -0.4044 -0.6857 0.6052
vn -0.5147 0.6857 0.5147
vn -0.5147 -0.6857 0.5147
vn -0.6052 0.6857 0.4044
vn -0.6052 -0.6857 0.4044
vn -0.6725 0.6857 0.2785
vn -0.6725 -0.6857 0.2785
vn -0.7139 0.6857 0.1420
vn -0.7139 -0.6857 0.1420
vn -0.7279 0.6857 0.0000
vn -0.7279 -0.6857 0.0000
vn -0.7139 0.6857 -0.1420
vn -0.7139 -0.6857 -0.1420
vn -0.6725 0.6857 -0.2785
vn -0.6725 -0.6857 -0.2785
vn -0.6052 0.6857 -0.4044
vn -0.6052 -0.6857 -0.4044
vn -0.5147 0.6857 -0.5147
vn -0.5147 -0.6857 -0.5147
vn -0.4044 0.6857 -0.6052
vn -0.4044 -0.6857 -0.6052
vn -0.2785 0.6857 -0.6725
vn -0.2785 -0.6857 -0.6725
vn -0.1420 0.6857 -0.7139
vn -0.1420 -0.6857 -0.7139
usemtl Material.001
s 1
f 1//1 2//2 4//3 3//4
f 3//4 4//3 6//5 5//6
f 5//6 6//5 8//7 7//8
f 7//8 8//7 10//9 9//10
f 9//10 10//9 12//11 11//12
f 11//12 12//11 14//13 13//14
f 13//14 14//13 16//15 15//16
f 15//16 16//15 18//17 17//18
f 17//18 18//17 20//19 19//20
f 19//20 20//19 22//21 21//22
f 21//22 22//21 24//23 23//24
f 23//24 24//23 26//25 25//26
f 25//26 26//25 28//27 27//28
f 27//28 28//27 30//29 29//30
f 29//30 30//29 32//31 31//32
f 31//32 32//31 34//33 33//34
f 33//34 34//33 36//35 35//36
f 35//36 36//35 38//37 37//38
f 37//38 38//37 40//39 39//40
f 39//40 40//39 42//41 41//42
f 41//42 42//41 44//43 43//44
f 43//44 44//43 46//45 45//46
f 45//46 46//45 48//47 47//48
f 47//48 48//47 50//49 49//50
f 49//50 50//49 52//51 51//52
f 51//52 52//51 54//53 53//54
f 53//54 54//53 56//55 55//56
f 55//56 56//55 58//57 57//58
f 57//58 58//57 60//59 59//60
f 59//60 60//59 62//61 61//62
f 4//3 2//2 64//63 62//61 60//59 58//57 56//55 54//53 52//51 50//49 48//47 46//45 44//43 42//41 40//39 38//37 36//35 34//33 32//31 30//29 28//27 26//25 24//23 22//21 20//19 18//17 16//15 14//13 12//11 10//9 8//7 6//5
f 61//62 62//61 64//63 63//64
f 63//64 64//63 2//2 1//1
f 1//1 3//4 5//6 7//8 9//10 11//12 13//14 15//16 17//18 19//20 21//22 23//24 25//26 27//28 29//30 31//32 33//34 35//36 37//38 39//40 41//42 43//44 45//46 47//48 49//50 51//52 53//54 55//56 57//58 59//60 61//62 63//64
